<svg width="1920" height="1348" viewBox="0 0 1920 1348" fill="none" xmlns="http://www.w3.org/2000/svg">
<rect width="1920" height="1348" fill="#E5E5E5"/>
<g clip-path="url(#clip0)">
<rect width="1920" height="1348" fill="#6633CC"/>
<text fill="white" xml:space="preserve" style="white-space: pre" font-family="Roboto Condensed" font-size="160" font-weight="bold" letter-spacing="0em"><tspan x="200" y="348.688">Ecoleta</tspan></text>
<text fill="white" xml:space="preserve" style="white-space: pre" font-family="Roboto" font-size="80" letter-spacing="0em"><tspan x="200" y="502.344">Next Level Week 1.0</tspan></text>
<rect x="240" y="722" width="1440" height="820" rx="20" fill="#F0F0F5"/>
<path opacity="0.5" fill-rule="evenodd" clip-rule="evenodd" d="M1670.08 1542H803.269C792.294 1394.2 938.012 1301.06 1017.18 1250.46C1027.46 1243.89 1036.63 1238.03 1044.17 1232.87C1077.26 1210.23 1101.8 1160.8 1127.89 1108.23C1175.97 1011.37 1229.34 903.855 1351.23 933.591C1458.39 959.802 1619.45 1071.33 1680 1238.18V1515.3C1677 1524.13 1673.69 1533.03 1670.08 1542Z" fill="url(#paint0_linear)"/>
<path d="M1279 1347C1153.08 1347 1051 1357.3 1051 1370C1051 1382.7 1153.08 1393 1279 1393C1404.92 1393 1507 1382.7 1507 1370C1507 1357.3 1404.92 1347 1279 1347Z" fill="#F0F0F5"/>
<path d="M1485.38 1280.82C1485.38 1280.82 1453.03 1373.06 1449.57 1373.06C1446.1 1373.06 1376.78 1394.96 1438.01 1367.29C1438.01 1367.29 1444.94 1266.98 1455.34 1262.37C1465.74 1257.76 1485.38 1280.82 1485.38 1280.82Z" fill="#965450"/>
<path d="M1461.12 1347.23C1471.63 1319.9 1485.38 1280.82 1485.38 1280.82C1485.38 1280.82 1465.74 1257.76 1455.34 1262.37C1448.64 1265.37 1443.33 1308.49 1440.44 1338.47C1447.37 1341.23 1454.19 1344.23 1461.12 1347.23Z" fill="#76413B"/>
<path d="M1465.74 1241.73C1465.74 1241.73 1515.76 1325.78 1513.57 1328.44C1511.37 1331.09 1483.65 1398.19 1501.67 1333.51C1501.67 1333.51 1429.12 1263.75 1432.24 1252.8C1435.47 1241.96 1465.74 1241.73 1465.74 1241.73Z" fill="#965450"/>
<path d="M1499.13 1344.35C1499.13 1344.35 1502.13 1350.34 1513.45 1326.71L1515.42 1329.82C1515.3 1329.82 1482.26 1395.54 1499.13 1344.35Z" fill="#051F38"/>
<path d="M1494.85 1291.77C1481.45 1268.13 1465.74 1241.73 1465.74 1241.73C1465.74 1241.73 1435.47 1241.96 1432.24 1252.8C1430.16 1259.83 1459.96 1291.66 1481.11 1313.1C1481.22 1313.22 1489.42 1304.11 1494.85 1291.77Z" fill="#76413B"/>
<path d="M1497.51 1115.36C1497.51 1115.36 1466.89 1081.35 1448.99 1102.68C1431.08 1124.01 1403.35 1194.34 1407.4 1223.17C1409.82 1240.12 1426.11 1258.22 1439.17 1270.33L1428.19 1332.13C1428.19 1332.13 1473.25 1344.23 1470.36 1344.23C1468.63 1344.23 1514.84 1220.29 1519.46 1181.08C1524.08 1141.88 1497.51 1115.36 1497.51 1115.36Z" fill="#6633CC"/>
<path opacity="0.2" d="M1474.06 1122.97C1482.61 1122.86 1491.97 1121.71 1500.17 1118.36C1498.55 1116.4 1497.51 1115.36 1497.51 1115.36C1497.51 1115.36 1466.9 1081.35 1448.99 1102.68C1446.22 1106.02 1443.21 1110.41 1440.21 1115.71C1450.26 1121.24 1462.97 1123.2 1474.06 1122.97Z" fill="#352C38"/>
<path opacity="0.2" d="M1428.19 1139.46C1415.48 1168.4 1404.74 1204.37 1407.4 1223.05C1409.71 1239.89 1425.88 1257.87 1438.94 1269.98C1443.56 1238.62 1451.99 1195.04 1457.08 1169.9C1444.48 1162.75 1434.08 1152.49 1428.19 1139.46Z" fill="#352C38"/>
<path d="M1409.13 1047.34L1390.65 1083.08C1390.65 1083.08 1358.3 1065.21 1353.68 1065.21C1349.06 1065.21 1327.1 1065.78 1337.5 1070.4C1337.5 1070.4 1332.88 1073.28 1338.08 1074.43C1338.08 1074.43 1333.46 1078.47 1339.24 1079.04L1352.52 1078.47C1352.52 1078.47 1379.09 1102.68 1392.38 1106.14C1405.66 1109.6 1427.04 1064.63 1427.04 1064.63L1409.13 1047.34Z" fill="#965450"/>
<path d="M1412.13 1072.93C1415.02 1073.97 1418.03 1075.01 1421.03 1076.05C1424.73 1069.59 1427.04 1064.52 1427.04 1064.52L1409.13 1047.22L1398.96 1066.82C1403.01 1069.36 1407.51 1071.32 1412.13 1072.93Z" fill="#76413B"/>
<path d="M1432.24 1030.04C1432.24 1030.04 1414.91 1027.16 1408.55 1036.38C1402.2 1045.61 1399.31 1060.6 1399.31 1060.6L1424.15 1072.7L1432.24 1030.04Z" fill="#34CB79"/>
<path opacity="0.1" d="M1422.65 1062.67C1416.29 1057.71 1409.02 1051.49 1404.28 1043.99C1400.81 1052.07 1399.2 1060.48 1399.2 1060.48L1424.03 1072.59L1425.54 1064.75C1424.61 1064.17 1423.57 1063.48 1422.65 1062.67Z" fill="#161826"/>
<path d="M1310.7 1060.94C1311.39 1062.79 1310.35 1064.86 1308.5 1065.56L1294.87 1070.51C1293.02 1071.2 1290.94 1070.17 1290.25 1068.32L1284.82 1053.22C1284.13 1051.37 1285.17 1049.3 1287.02 1048.61L1300.65 1043.65C1302.5 1042.96 1304.58 1043.99 1305.27 1045.84L1310.7 1060.94Z" fill="#23173B"/>
<path d="M1321.67 1049.64L1278.93 1064.98C1271.42 1067.63 1267.61 1075.93 1270.26 1083.43L1283.43 1119.98C1286.09 1127.47 1294.41 1131.28 1301.92 1128.62L1344.66 1113.29C1352.17 1110.64 1355.99 1102.34 1353.33 1094.84L1340.16 1058.29C1337.39 1050.8 1329.18 1046.88 1321.67 1049.64ZM1349.17 1098.18C1350.21 1101.18 1348.71 1104.53 1345.7 1105.56L1327.34 1054.83C1330.34 1053.79 1333.69 1055.29 1334.73 1058.29L1349.17 1098.18Z" fill="#322153"/>
<path d="M1307.93 1045.61C1308.5 1047.22 1307.7 1049.07 1306.08 1049.64L1286.67 1056.68C1285.05 1057.25 1283.2 1056.45 1282.63 1054.83L1281.01 1050.34C1280.43 1048.72 1281.24 1046.88 1282.86 1046.3L1302.27 1039.27C1303.88 1038.69 1305.73 1039.5 1306.31 1041.11L1307.93 1045.61Z" fill="#6633CC"/>
<path d="M1335.19 1067.52C1335.19 1067.52 1342.47 1064.98 1343.74 1066.48C1344.9 1067.86 1337.62 1069.94 1337.96 1070.05C1338.2 1070.17 1345.82 1068.44 1346.51 1070.05C1347.21 1071.67 1338.43 1074.55 1338.43 1074.55C1338.43 1074.55 1346.74 1072.24 1347.32 1073.97C1347.9 1075.7 1338.66 1078.24 1338.66 1078.24L1338.2 1074.43L1337.62 1070.05L1335.19 1067.52Z" fill="#965450"/>
<path d="M1345.47 1065.55C1345.47 1065.55 1339.81 1061.75 1339.81 1060.48C1339.7 1059.1 1354.83 1065.44 1354.83 1065.44L1345.47 1065.55Z" fill="#965450"/>
<path d="M1457.08 1027.16C1455.92 1029.24 1461.58 980.926 1461.58 980.926L1435.36 998.567C1435.36 998.567 1437.67 1029.47 1434.78 1029.58C1433.62 1029.58 1429.12 1031.31 1424.15 1033.16C1425.3 1038.92 1427.62 1040.19 1429.58 1045.72C1444.25 1045.61 1460.19 1045.26 1469.21 1031.89C1464.01 1030.16 1458.58 1024.28 1457.08 1027.16Z" fill="#76413B"/>
<path d="M1432.24 1030.04L1431.08 1026.01L1459.96 1019.67L1461.12 1026.58C1461.12 1026.58 1495.78 1038.11 1500.4 1064.06C1505.02 1090 1502.71 1106.72 1497.51 1115.36C1497.51 1115.36 1457.08 1121.13 1439.75 1112.48C1422.42 1103.83 1404.51 1039.27 1413.75 1033.5C1422.99 1027.74 1432.24 1030.04 1432.24 1030.04Z" fill="#34CB79"/>
<path opacity="0.1" d="M1470.01 1101.87C1456.15 1101.07 1439.17 1099.45 1427.62 1090.92C1425.42 1089.31 1423.46 1087.58 1421.61 1085.62C1426.81 1098.42 1433.28 1109.25 1439.75 1112.48C1457.08 1121.13 1497.51 1115.36 1497.51 1115.36C1499.82 1111.56 1501.55 1106.14 1502.36 1098.99C1491.97 1102.1 1481.11 1102.57 1470.01 1101.87Z" fill="#161826"/>
<path d="M1468.63 1081.93L1498.09 1079.62C1498.09 1079.62 1490.58 1131.51 1481.91 1149.38C1473.25 1167.25 1433.39 1237.58 1448.99 1198.38C1448.99 1198.38 1428.77 1228.93 1446.1 1197.8C1446.1 1197.8 1427.04 1222.59 1443.79 1196.07C1443.79 1196.07 1424.15 1218.56 1444.94 1186.85C1444.94 1186.85 1429.35 1194.34 1446.68 1181.66L1463.43 1137.85L1468.63 1081.93Z" fill="#965450"/>
<path d="M1497.4 1083.77C1497.86 1081.12 1498.09 1079.51 1498.09 1079.51L1468.63 1081.81L1468.4 1084.81C1477.99 1084.81 1487.69 1084.35 1497.4 1083.77Z" fill="#76413B"/>
<path d="M1437.78 949.911C1437.78 949.911 1452.45 941.379 1473.94 955.445C1488.15 964.784 1487.46 994.647 1456.73 1014.25C1420.22 1037.54 1437.78 949.911 1437.78 949.911Z" fill="#051F38"/>
<path d="M1458.12 965.822C1458.12 965.822 1441.59 953.024 1427.5 959.25C1409.71 967.321 1411.56 986.114 1411.21 1002.14C1410.75 1023.47 1427.62 1027.51 1432.7 1027.74C1440.21 1028.2 1470.82 1026.35 1458.12 965.822Z" fill="#965450"/>
<path d="M1459.73 985.769C1459.73 985.769 1460.43 982.54 1465.97 985.077C1473.02 988.42 1469.21 1005.25 1461.35 1004.79C1453.38 1004.45 1459.73 985.769 1459.73 985.769Z" fill="#965450"/>
<path d="M1459.73 985.769C1459.73 985.769 1460.66 997.298 1458 997.414C1455.23 997.529 1452.34 976.545 1459.96 976.545C1467.59 976.775 1459.73 985.769 1459.73 985.769Z" fill="#051F38"/>
<path d="M1459.73 985.769C1459.73 985.769 1454.07 960.172 1420.45 964.438C1420.45 964.438 1425.31 954.869 1435.93 950.372C1450.37 944.261 1471.98 968.82 1465.97 985.077C1465.97 985.077 1463.2 985.423 1459.73 985.769Z" fill="#34CB79"/>
<path d="M1473.94 962.132C1473.94 962.132 1472.09 931.578 1479.49 931.578C1486.88 931.578 1478.91 957.29 1478.91 957.29C1478.91 957.29 1485.03 920.51 1502.83 926.044C1520.62 931.578 1489.89 957.29 1489.89 957.29C1489.89 957.29 1503.98 944.376 1508.95 948.758C1513.8 953.024 1488.73 961.671 1488.73 961.671C1488.73 961.671 1507.79 956.137 1510.22 965.361C1512.65 974.469 1473.37 973.201 1473.94 962.132Z" fill="#051F38"/>
<path d="M1412.13 979.889C1412.13 979.889 1412.13 979.658 1412.37 979.197C1412.6 978.736 1412.83 978.159 1413.41 977.583C1413.98 977.006 1414.68 976.315 1415.6 975.853C1415.83 975.738 1416.06 975.623 1416.41 975.508C1416.64 975.392 1416.99 975.277 1417.22 975.277C1417.56 975.277 1417.8 975.162 1418.14 975.162H1419.07C1419.64 975.162 1420.22 975.392 1420.8 975.623C1421.38 975.853 1421.84 976.084 1422.3 976.43C1422.76 976.776 1423.11 977.122 1423.46 977.468C1423.8 977.813 1424.03 978.159 1424.15 978.505C1424.27 978.621 1424.38 978.851 1424.38 978.966C1424.5 979.082 1424.5 979.312 1424.61 979.428C1424.73 979.774 1424.84 980.004 1424.84 980.235C1424.96 980.696 1424.96 980.927 1424.96 980.927C1424.96 980.927 1424.73 980.811 1424.27 980.696C1424.03 980.581 1423.8 980.465 1423.57 980.35C1423.34 980.235 1422.99 980.119 1422.65 979.889C1422.3 979.774 1422.07 979.543 1421.72 979.428C1421.38 979.312 1421.03 979.197 1420.68 979.082C1420.34 978.966 1419.99 978.851 1419.64 978.736C1419.3 978.736 1418.95 978.621 1418.6 978.621H1418.14C1418.03 978.621 1417.8 978.621 1417.56 978.621C1417.22 978.621 1416.87 978.736 1416.52 978.736C1416.18 978.851 1415.83 978.851 1415.48 978.966C1415.14 979.082 1414.79 979.082 1414.44 979.197C1413.75 979.428 1413.17 979.543 1412.83 979.658C1412.48 979.889 1412.13 979.889 1412.13 979.889Z" fill="#051F38"/>
<path d="M1421.03 1011.6C1421.03 1011.6 1439.98 1012.17 1441.25 1011.94C1442.4 1011.71 1430.62 1020.93 1421.03 1011.6Z" fill="white"/>
<path d="M1422.3 990.496C1422.3 990.496 1422.3 990.726 1422.19 991.188C1422.07 991.649 1421.95 992.225 1421.72 993.032C1421.61 993.378 1421.49 993.839 1421.26 994.185C1421.15 994.416 1421.03 994.647 1420.91 994.762C1420.8 994.992 1420.57 995.223 1420.45 995.338C1420.11 995.684 1419.76 996.145 1419.18 996.376C1419.07 996.491 1418.95 996.491 1418.72 996.607L1418.37 996.722C1418.14 996.837 1417.8 996.837 1417.45 996.837C1416.87 996.837 1416.18 996.722 1415.72 996.261C1415.25 995.915 1414.91 995.454 1414.68 994.877C1414.44 994.416 1414.33 993.955 1414.21 993.494C1414.1 993.032 1414.1 992.571 1414.1 992.225C1414.1 991.418 1414.1 990.842 1414.21 990.381C1414.33 989.919 1414.44 989.689 1414.44 989.689C1414.44 989.689 1414.44 990.726 1414.79 992.225C1414.91 992.917 1415.14 993.839 1415.6 994.531C1415.83 994.877 1416.06 995.223 1416.41 995.454C1416.76 995.684 1417.1 995.8 1417.45 995.8C1417.68 995.8 1417.8 995.8 1418.03 995.684L1418.37 995.569C1418.37 995.569 1418.49 995.454 1418.6 995.454C1418.95 995.338 1419.3 994.992 1419.64 994.762C1419.99 994.416 1420.22 994.07 1420.45 993.724C1420.68 993.378 1420.91 993.032 1421.03 992.686C1421.38 991.995 1421.61 991.418 1421.84 991.072C1422.19 990.726 1422.3 990.496 1422.3 990.496Z" fill="#1F2733"/>
<path d="M1441.36 991.995C1441.36 991.995 1441.36 992.225 1441.25 992.686C1441.13 993.148 1441.02 993.724 1440.79 994.531C1440.67 994.877 1440.55 995.338 1440.32 995.684C1440.21 995.915 1440.09 996.145 1439.98 996.261C1439.86 996.491 1439.63 996.722 1439.51 996.837C1439.17 997.183 1438.82 997.644 1438.24 997.875C1438.13 997.99 1438.01 997.99 1437.78 998.106L1437.44 998.221C1437.2 998.336 1436.86 998.336 1436.51 998.336C1435.93 998.336 1435.24 998.221 1434.78 997.76C1434.32 997.414 1433.97 996.953 1433.74 996.376C1433.51 995.915 1433.39 995.454 1433.28 994.992C1433.16 994.531 1433.16 994.07 1433.16 993.724C1433.16 992.917 1433.16 992.341 1433.28 991.879C1433.39 991.418 1433.51 991.188 1433.51 991.188C1433.51 991.188 1433.51 992.225 1433.85 993.724C1433.97 994.416 1434.2 995.338 1434.66 996.03C1434.89 996.376 1435.12 996.722 1435.47 996.953C1435.82 997.183 1436.16 997.298 1436.51 997.298C1436.74 997.298 1436.86 997.298 1437.09 997.183L1437.44 997.068C1437.44 997.068 1437.55 996.953 1437.67 996.953C1438.01 996.837 1438.36 996.491 1438.71 996.261C1439.05 995.915 1439.28 995.569 1439.51 995.223C1439.75 994.877 1439.98 994.531 1440.09 994.185C1440.44 993.494 1440.67 992.917 1440.9 992.571C1441.25 992.225 1441.36 991.995 1441.36 991.995Z" fill="#1F2733"/>
<path d="M1462.39 1001.56C1462.74 1001.1 1462.97 1000.76 1463.2 1000.3C1463.43 999.835 1463.55 999.374 1463.66 998.913C1463.66 998.682 1463.66 998.451 1463.66 998.221C1463.66 998.106 1463.55 997.99 1463.55 997.99C1463.55 997.875 1463.43 997.76 1463.31 997.76C1463.2 997.644 1463.2 997.644 1463.08 997.529L1462.85 997.298C1462.74 997.183 1462.62 997.183 1462.51 997.183L1462.16 997.068L1461.93 996.953V996.722C1461.58 995.454 1461.47 994.301 1461.35 993.032C1461.23 992.456 1461.23 991.764 1461.35 991.188C1461.35 990.496 1461.47 989.919 1461.7 989.228C1461.81 988.882 1462.04 988.536 1462.39 988.305C1462.74 988.075 1463.2 987.844 1463.55 987.959C1464.01 987.959 1464.24 988.075 1464.58 988.19C1464.93 988.305 1465.28 988.421 1465.51 988.651C1465.74 988.882 1466.09 989.112 1466.2 989.343C1466.43 989.574 1466.55 989.919 1466.66 990.15C1466.9 990.726 1467.01 991.418 1466.9 991.995C1466.78 991.418 1466.66 990.842 1466.32 990.265C1466.2 990.035 1465.97 989.804 1465.74 989.573C1465.51 989.343 1465.28 989.228 1465.05 989.112C1464.82 988.997 1464.58 988.882 1464.24 988.882C1464.01 988.882 1463.66 988.766 1463.43 988.766C1462.97 988.766 1462.74 989.112 1462.62 989.573C1462.27 990.611 1462.39 991.764 1462.39 992.917C1462.51 994.07 1462.62 995.338 1462.85 996.491L1462.62 996.146L1462.97 996.376C1463.08 996.491 1463.2 996.491 1463.31 996.607L1463.66 996.837C1463.78 996.953 1463.89 997.068 1464.01 997.183C1464.12 997.299 1464.24 997.414 1464.24 997.644C1464.35 997.76 1464.35 997.99 1464.35 998.106C1464.47 998.451 1464.35 998.682 1464.35 999.028C1464.24 999.604 1463.89 1000.07 1463.55 1000.53C1463.2 1000.87 1462.74 1001.33 1462.39 1001.56Z" fill="#76413B"/>
<path d="M1424.03 1006.41C1423.46 1006.52 1422.99 1006.52 1422.53 1006.52C1422.07 1006.52 1421.61 1006.41 1421.26 1006.29C1420.8 1006.18 1420.45 1005.95 1420.11 1005.83C1419.87 1005.72 1419.76 1005.6 1419.53 1005.48C1419.3 1005.37 1419.18 1005.25 1418.95 1005.14L1418.26 1004.56L1418.37 1004.1C1419.53 1000.76 1420.68 997.529 1421.84 994.301C1422.99 991.072 1424.27 987.729 1425.54 984.5C1424.73 987.844 1423.8 991.303 1422.99 994.647C1422.07 997.99 1421.15 1001.33 1420.22 1004.68L1419.76 1003.64C1419.99 1003.64 1420.22 1003.76 1420.45 1003.76C1420.68 1003.76 1420.91 1003.87 1421.03 1003.99C1421.38 1004.1 1421.84 1004.33 1422.19 1004.56C1422.53 1004.79 1422.88 1005.14 1423.23 1005.48C1423.46 1005.6 1423.8 1005.95 1424.03 1006.41Z" fill="#76413B"/>
<path d="M1430.85 978.505C1430.85 978.505 1430.97 978.159 1431.31 977.813C1431.54 977.582 1431.66 977.352 1432.01 977.006C1432.35 976.775 1432.58 976.429 1433.05 976.199C1433.39 975.968 1433.85 975.622 1434.43 975.392C1434.89 975.161 1435.47 974.931 1436.05 974.7C1436.63 974.585 1437.32 974.354 1438.01 974.354C1438.36 974.354 1438.71 974.354 1439.05 974.354L1440.09 974.469C1440.79 974.469 1441.48 974.815 1442.06 974.931C1442.63 975.161 1443.21 975.507 1443.79 975.738C1444.37 976.084 1444.83 976.429 1445.18 976.775C1445.64 977.121 1445.98 977.582 1446.22 977.928C1446.56 978.274 1446.79 978.62 1447.02 978.966C1447.26 979.312 1447.37 979.658 1447.49 979.888C1447.72 980.35 1447.83 980.695 1447.83 980.695C1447.83 980.695 1447.49 980.58 1447.02 980.35C1446.79 980.234 1446.45 980.119 1446.1 979.888C1445.75 979.658 1445.41 979.542 1444.94 979.427C1444.6 979.312 1444.14 979.081 1443.67 978.851C1443.21 978.735 1442.75 978.505 1442.29 978.39C1441.83 978.274 1441.36 978.159 1440.9 978.044C1440.44 978.044 1439.98 977.813 1439.4 977.813L1438.71 977.698H1438.01C1437.55 977.698 1436.97 977.698 1436.51 977.698C1436.05 977.698 1435.59 977.698 1435.12 977.813C1434.66 977.813 1434.2 977.928 1433.74 977.928C1432.93 978.044 1432.12 978.159 1431.66 978.274C1431.2 978.505 1430.85 978.505 1430.85 978.505Z" fill="#051F38"/>
<path d="M1414.91 1372.83C1414.91 1376.98 1411.56 1380.44 1407.4 1380.55C1403.24 1380.55 1399.77 1377.21 1399.66 1373.06L1399.31 1348.61C1399.31 1344.46 1402.66 1341 1406.82 1340.89C1410.98 1340.89 1414.44 1344.23 1414.56 1348.38L1414.91 1372.83Z" fill="#091E1D"/>
<path d="M1308.5 1374.09C1308.5 1378.25 1305.15 1381.7 1300.99 1381.82C1296.84 1381.82 1293.37 1378.48 1293.25 1374.33L1292.91 1349.88C1292.91 1345.73 1296.26 1342.27 1300.42 1342.16C1304.58 1342.16 1308.04 1345.5 1308.16 1349.65L1308.5 1374.09Z" fill="#091E1D"/>
<path d="M1406.36 1355.42C1406.47 1364.87 1398.85 1372.59 1389.37 1372.71L1318.21 1373.52C1308.74 1373.63 1300.99 1366.02 1300.88 1356.57L1293.25 1194.92C1293.14 1185.47 1300.76 1177.74 1310.24 1177.63L1392.84 1176.59C1402.31 1176.47 1410.05 1184.08 1410.17 1193.54L1406.36 1355.42Z" fill="#34CB79"/>
<path opacity="0.1" d="M1409.71 1209.79L1410.05 1193.77C1409.94 1184.31 1402.2 1176.7 1392.73 1176.82L1310.12 1177.86C1300.65 1177.97 1293.02 1185.7 1293.14 1195.15L1293.95 1211.18L1409.71 1209.79Z" fill="#161826"/>
<path d="M1423.8 1189.73C1423.8 1192.38 1421.72 1194.46 1419.07 1194.57L1284.13 1196.19C1281.47 1196.19 1279.39 1194.11 1279.28 1191.46L1279.04 1174.4C1279.04 1171.75 1281.12 1169.67 1283.78 1169.55L1418.72 1167.94C1421.38 1167.94 1423.46 1170.02 1423.57 1172.67L1423.8 1189.73Z" fill="#34CB79"/>
<path d="M1352.17 1237.12L1367.89 1227.66L1364.07 1237.47L1352.17 1237.12Z" fill="white"/>
<path d="M1346.28 1222.25C1346.28 1222.25 1347.55 1222.25 1349.52 1225.24C1351.48 1228.24 1355.87 1236.31 1355.87 1236.31L1363.84 1232.74L1365.69 1229.62C1365.69 1229.62 1362.23 1222.71 1359.45 1222.25H1346.28Z" fill="white"/>
<path d="M1341.89 1224.32C1341.89 1224.32 1344.32 1221.67 1346.28 1223.05C1348.25 1224.44 1351.71 1230.2 1351.71 1230.2L1346.05 1240.12L1335.88 1234.47L1341.89 1224.32Z" fill="white"/>
<path d="M1359.34 1249.46L1360.15 1267.67L1353.33 1259.72L1359.34 1249.46Z" fill="white"/>
<path d="M1375.28 1251.3C1375.28 1251.3 1374.7 1252.45 1371.12 1252.8C1367.54 1253.15 1358.3 1253.15 1358.3 1253.15L1357.6 1261.91L1359.45 1265.02C1359.45 1265.02 1367.19 1265.37 1368.93 1263.06L1375.28 1251.3Z" fill="white"/>
<path d="M1375.4 1246.46C1375.4 1246.46 1376.67 1249.8 1374.47 1250.95C1372.39 1251.99 1365.58 1252.22 1365.58 1252.22L1359.45 1242.54L1369.27 1236.2L1375.4 1246.46Z" fill="white"/>
<path d="M1345.47 1249.23L1329.3 1240.69L1339.7 1238.85L1345.47 1249.23Z" fill="white"/>
<path d="M1335.88 1262.02C1335.88 1262.02 1335.19 1260.99 1336.69 1257.76C1338.2 1254.53 1342.82 1246.57 1342.82 1246.57L1335.65 1241.62L1332.07 1241.73C1332.07 1241.73 1327.91 1248.3 1328.95 1250.84L1335.88 1262.02Z" fill="white"/>
<path d="M1339.93 1264.56C1339.93 1264.56 1336.35 1263.87 1336.58 1261.56C1336.69 1259.14 1339.93 1253.26 1339.93 1253.26L1351.37 1252.92L1351.83 1264.56H1339.93Z" fill="white"/>
<path d="M1104.25 1327.17C1104.25 1327.17 1101.71 1367.87 1099.51 1368.67C1091.08 1371.56 1027.42 1387.7 1087.61 1360.6L1085.99 1330.97L1104.25 1327.17Z" fill="#051F38"/>
<path d="M1101.59 1358.76C1103.09 1346.42 1104.25 1327.17 1104.25 1327.17L1085.99 1330.97L1087.5 1357.38C1092 1358.64 1097.2 1358.76 1101.59 1358.76Z" fill="#041523"/>
<path d="M1143.18 1324.98C1143.18 1324.98 1146.53 1365.68 1148.84 1366.37C1157.39 1369.14 1221.28 1384.01 1160.51 1358.07L1161.55 1328.44L1143.18 1324.98Z" fill="#051F38"/>
<path d="M1146.53 1356.45C1144.8 1344.23 1143.18 1324.98 1143.18 1324.98L1161.55 1328.44L1160.63 1354.84C1156.12 1356.22 1150.92 1356.34 1146.53 1356.45Z" fill="#041523"/>
<path d="M1154.39 1105.22C1154.39 1105.22 1171.02 1239.31 1167.67 1347.81C1167.67 1347.81 1147.8 1353.34 1142.6 1349.3C1138.1 1323.59 1138.68 1273.55 1131.97 1236.43C1125.62 1201.38 1123.08 1172.67 1123.08 1172.67L1121 1170.36C1121 1170.36 1107.37 1339.85 1104.36 1352.76C1087.15 1356.8 1081.72 1352.07 1081.72 1352.07C1081.72 1352.07 1073.86 1140.04 1078.72 1105.79C1084.95 1061.06 1154.39 1105.22 1154.39 1105.22Z" fill="#34CB79"/>
<path opacity="0.1" d="M1157.39 1133C1155.66 1115.71 1154.27 1105.33 1154.27 1105.33C1154.27 1105.33 1084.95 1061.17 1078.6 1105.91C1078.02 1110.06 1077.67 1116.86 1077.33 1125.51C1082.53 1128.39 1147.45 1137.62 1157.39 1133Z" fill="#161826"/>
<path opacity="0.1" d="M1121.81 1168.98C1122.62 1178.09 1126.78 1207.49 1131.97 1236.43C1138.68 1273.67 1138.1 1323.59 1142.6 1349.3C1147.8 1353.34 1167.67 1347.81 1167.67 1347.81C1169.64 1281.05 1164.21 1204.61 1159.59 1155.72C1148.61 1162.64 1134.63 1165.98 1121.81 1168.98Z" fill="#161826"/>
<path d="M1127.7 987.959C1127.82 973.893 1128.86 955.33 1128.86 955.33L1101.13 947.72C1101.13 947.72 1102.05 972.855 1102.86 988.19C1090.27 992.456 1075.94 1000.53 1075.94 1000.53L1128.28 1013.79L1146.88 995.8C1146.88 995.8 1137.52 991.072 1127.7 987.959Z" fill="#FFB39F"/>
<path d="M1127.7 987.959C1127.82 973.893 1128.86 955.33 1128.86 955.33L1101.13 947.72C1101.13 947.72 1102.05 972.855 1102.86 988.19C1090.27 992.456 1075.94 1000.53 1075.94 1000.53L1128.28 1013.79L1153 992.571C1153 992.571 1137.64 986.806 1127.7 987.959Z" fill="#E09B8D"/>
<path d="M1098.7 921.086C1098.7 921.086 1105.98 897.565 1125.16 901.255C1144.34 904.944 1147.11 929.964 1149.54 946.798C1151.96 963.747 1146.53 978.966 1131.51 980.811C1118.46 982.425 1095.7 979.888 1098.7 921.086Z" fill="#FFB39F"/>
<path d="M1099.63 940.802C1099.63 940.802 1098.47 937.689 1093.73 941.148C1087.73 945.529 1093.85 961.671 1101.13 959.942C1108.41 958.212 1099.63 940.802 1099.63 940.802Z" fill="#FFB39F"/>
<path d="M1092.93 907.596C1093.39 907.481 1102.4 906.789 1096.39 907.366C1101.94 913.361 1101.36 914.86 1108.98 916.244C1113.03 928.696 1105.06 936.19 1105.06 936.19L1107.25 951.179L1101.47 951.756C1101.47 951.756 1101.59 941.379 1097.2 940.456C1092.81 939.534 1091.54 944.838 1091.54 944.838C1082.41 933.308 1073.17 910.709 1092.93 907.596Z" fill="#051F38"/>
<path d="M1145.26 899.179C1148.96 890.071 1142.72 882 1142.72 882C1143.76 885.344 1143.3 888.457 1142.26 890.993C1141.56 888.457 1140.29 885.69 1137.98 882.922C1137.98 882.922 1138.68 892.146 1126.08 890.993C1113.49 889.84 1091.42 891.57 1090.5 911.055C1089.46 930.541 1108.29 916.359 1108.29 916.359C1108.29 916.359 1145.84 926.851 1151.27 896.643L1145.26 899.179Z" fill="#051F38"/>
<path d="M1127.47 932.848C1127.47 932.848 1127.12 932.848 1126.66 932.732C1126.08 932.617 1125.39 932.502 1124.58 932.386C1124.12 932.271 1123.77 932.271 1123.31 932.271C1122.85 932.156 1122.39 932.156 1121.92 932.156C1121.46 932.156 1121 932.156 1120.42 932.156C1120.19 932.156 1119.96 932.156 1119.73 932.156L1119.04 932.271C1118.57 932.271 1118.11 932.386 1117.53 932.502C1117.07 932.617 1116.61 932.732 1116.15 932.848C1115.68 932.963 1115.22 933.193 1114.76 933.309C1114.3 933.424 1113.95 933.655 1113.49 933.77C1113.14 933.885 1112.68 934.001 1112.45 934.231C1112.1 934.346 1111.87 934.462 1111.64 934.577C1111.18 934.808 1110.83 934.923 1110.83 934.923C1110.83 934.923 1110.95 934.577 1111.18 934.116C1111.29 933.885 1111.41 933.539 1111.64 933.193C1111.87 932.848 1112.1 932.502 1112.45 932.156C1112.8 931.81 1113.03 931.349 1113.49 931.003C1113.95 930.657 1114.41 930.311 1114.99 929.965C1115.57 929.735 1116.15 929.389 1116.72 929.158C1117.42 928.927 1118 928.812 1118.69 928.697L1119.73 928.582C1120.08 928.582 1120.42 928.582 1120.77 928.697C1121.11 928.697 1121.46 928.812 1121.69 928.812C1122.04 928.927 1122.27 928.927 1122.62 929.043C1123.19 929.273 1123.77 929.389 1124.23 929.735C1124.7 929.965 1125.16 930.311 1125.62 930.542C1125.97 930.772 1126.31 931.118 1126.66 931.349C1126.89 931.579 1127.12 931.925 1127.35 932.04C1127.24 932.502 1127.47 932.848 1127.47 932.848Z" fill="#051F38"/>
<path d="M1146.99 932.27C1146.99 932.27 1146.76 932.155 1146.3 932.04C1145.84 931.924 1145.26 931.694 1144.68 931.463C1144.34 931.348 1143.99 931.232 1143.64 931.117C1143.3 931.002 1142.95 930.887 1142.6 930.887C1142.26 930.887 1141.91 930.771 1141.56 930.656C1141.45 930.656 1141.22 930.656 1141.1 930.541H1140.64C1140.29 930.425 1139.95 930.656 1139.6 930.541C1139.25 930.656 1138.91 930.656 1138.56 930.771C1138.21 930.887 1137.87 931.002 1137.52 931.117C1137.17 931.232 1136.83 931.348 1136.6 931.463C1136.25 931.578 1135.9 931.694 1135.67 931.809C1135.44 931.924 1135.21 932.04 1134.98 932.04C1134.52 932.155 1134.29 932.27 1134.29 932.27C1134.29 932.27 1134.29 932.04 1134.52 931.578C1134.63 931.348 1134.63 931.117 1134.86 930.771C1134.98 930.425 1135.21 930.195 1135.44 929.849C1135.67 929.503 1135.9 929.157 1136.25 928.811C1136.6 928.465 1137.06 928.235 1137.4 927.889C1137.87 927.658 1138.44 927.428 1138.91 927.197C1139.48 927.082 1140.06 926.966 1140.64 926.966C1140.99 926.966 1141.22 926.966 1141.56 926.966C1141.91 926.966 1142.14 927.082 1142.37 927.197C1142.6 927.197 1142.95 927.312 1143.18 927.428C1143.41 927.543 1143.64 927.658 1143.87 927.774C1144.8 928.35 1145.49 928.927 1145.95 929.618C1146.42 930.31 1146.65 930.887 1146.88 931.348C1146.99 932.04 1146.99 932.27 1146.99 932.27Z" fill="#051F38"/>
<path d="M1132.78 933.538C1133.48 935.037 1134.17 936.652 1134.86 938.15C1135.21 938.957 1135.44 939.649 1135.79 940.456L1136.71 942.762L1137.64 945.068C1137.98 945.875 1138.21 946.567 1138.56 947.374L1139.02 948.527C1139.14 948.873 1139.37 949.334 1139.48 949.68C1139.83 950.372 1140.18 951.064 1140.52 951.871L1140.87 952.793L1140.18 953.139C1139.14 953.6 1138.1 954.177 1136.94 954.638C1135.9 955.099 1134.75 955.56 1133.59 955.906C1134.52 955.099 1135.44 954.407 1136.36 953.716C1137.29 953.024 1138.33 952.332 1139.25 951.64L1138.91 952.909C1138.44 952.217 1137.98 951.41 1137.52 950.718C1137.06 950.026 1136.71 949.219 1136.36 948.412L1135.79 947.259L1135.32 946.106C1135.09 945.299 1134.75 944.492 1134.52 943.685L1133.82 941.263C1133.59 940.456 1133.48 939.649 1133.25 938.842C1133.13 936.997 1132.9 935.268 1132.78 933.538Z" fill="#DD9078"/>
<path d="M1099.28 956.598C1098.82 956.368 1098.36 956.022 1098.01 955.56C1097.66 955.215 1097.2 954.753 1096.97 954.177C1096.85 953.946 1096.74 953.6 1096.74 953.254C1096.74 953.139 1096.74 952.909 1096.74 952.793C1096.74 952.678 1096.85 952.447 1096.85 952.332C1096.97 951.986 1097.2 951.756 1097.43 951.525C1097.55 951.41 1097.66 951.294 1097.78 951.179L1098.12 950.948L1097.89 951.294C1097.89 950.026 1097.89 948.758 1097.78 947.605C1097.66 946.337 1097.55 945.068 1097.08 944.031C1096.97 943.8 1096.85 943.569 1096.62 943.454C1096.51 943.339 1096.28 943.224 1096.04 943.224C1095.93 943.224 1095.81 943.223 1095.7 943.339C1095.58 943.339 1095.35 943.454 1095.24 943.454C1095 943.569 1094.77 943.685 1094.54 943.915C1094.31 944.146 1094.08 944.261 1093.97 944.492C1093.85 944.722 1093.62 944.953 1093.5 945.299C1093.27 945.875 1093.16 946.452 1093.16 947.144C1092.93 946.567 1092.93 945.875 1093.04 945.184C1093.04 944.838 1093.16 944.492 1093.39 944.261C1093.5 943.915 1093.73 943.685 1093.97 943.454L1094.31 943.108L1094.77 942.762C1094.89 942.647 1095.12 942.647 1095.24 942.532C1095.35 942.416 1095.58 942.416 1095.81 942.301C1096.28 942.186 1096.74 942.301 1097.08 942.647C1097.43 942.878 1097.66 943.223 1097.78 943.569C1098.12 944.261 1098.24 944.838 1098.47 945.529C1098.59 946.221 1098.7 946.798 1098.7 947.49C1098.82 948.758 1098.82 950.026 1098.7 951.41V951.64L1098.47 951.756C1098.24 951.871 1098.01 951.986 1097.89 952.217C1097.78 952.332 1097.55 952.563 1097.43 952.678C1097.32 952.793 1097.32 952.909 1097.32 953.024C1097.32 953.139 1097.2 953.254 1097.2 953.37C1097.2 953.6 1097.2 953.831 1097.2 954.062C1097.32 954.523 1097.55 954.984 1097.89 955.445C1098.59 955.906 1098.93 956.252 1099.28 956.598Z" fill="#DD9078"/>
<path d="M1117.42 943.8C1117.42 943.8 1117.53 944.031 1117.65 944.492C1117.76 944.722 1117.76 944.953 1117.88 945.184C1118 945.414 1118.11 945.76 1118.34 946.106C1118.46 946.452 1118.8 946.682 1118.92 947.028C1119.04 947.144 1119.15 947.259 1119.38 947.49C1119.5 947.605 1119.61 947.72 1119.84 947.835C1120.19 948.066 1120.54 948.181 1120.88 948.297C1121.11 948.297 1121.23 948.412 1121.46 948.412C1121.69 948.412 1121.81 948.412 1122.04 948.297L1122.62 948.066L1123.19 947.72C1123.54 947.49 1123.77 947.144 1124 946.798C1124.23 946.452 1124.35 946.106 1124.58 945.76C1124.7 945.414 1124.81 945.068 1124.81 944.607C1124.81 944.261 1124.81 943.915 1124.93 943.685C1124.93 943.339 1124.93 943.108 1124.93 942.878C1124.93 942.416 1124.93 942.186 1124.93 942.186C1124.93 942.186 1125.04 942.416 1125.16 942.878C1125.27 943.108 1125.27 943.339 1125.39 943.685C1125.39 944.031 1125.5 944.376 1125.5 944.722C1125.5 945.068 1125.5 945.529 1125.39 945.991C1125.27 946.452 1125.16 946.913 1124.93 947.374C1124.7 947.835 1124.35 948.297 1123.89 948.643L1123.19 949.104C1122.96 949.219 1122.62 949.334 1122.39 949.45C1122.15 949.45 1121.81 949.565 1121.46 949.565C1121.23 949.565 1120.88 949.45 1120.65 949.45C1120.07 949.334 1119.61 948.988 1119.15 948.643C1118.69 948.297 1118.46 947.835 1118.23 947.49C1118 947.028 1117.76 946.682 1117.65 946.337C1117.53 945.991 1117.42 945.645 1117.42 945.299C1117.42 944.953 1117.42 944.722 1117.42 944.492C1117.42 944.031 1117.42 943.8 1117.42 943.8Z" fill="#1F2733"/>
<path d="M1138.33 940.341C1138.33 940.341 1138.44 940.572 1138.56 941.033C1138.68 941.263 1138.68 941.494 1138.79 941.725C1138.91 941.955 1139.02 942.301 1139.25 942.647C1139.37 942.993 1139.72 943.224 1139.83 943.569C1139.95 943.685 1140.06 943.8 1140.29 944.031C1140.41 944.146 1140.52 944.261 1140.75 944.376C1141.1 944.607 1141.45 944.722 1141.79 944.838C1142.03 944.838 1142.14 944.953 1142.37 944.953C1142.6 944.953 1142.72 944.953 1142.95 944.838L1143.53 944.607L1144.11 944.261C1144.45 944.031 1144.68 943.685 1144.91 943.339C1145.14 942.993 1145.26 942.647 1145.49 942.301C1145.61 941.955 1145.72 941.609 1145.72 941.148C1145.72 940.802 1145.72 940.456 1145.84 940.226C1145.84 939.88 1145.84 939.649 1145.84 939.419C1145.84 938.957 1145.84 938.727 1145.84 938.727C1145.84 938.727 1145.95 938.957 1146.07 939.419C1146.18 939.649 1146.18 939.88 1146.3 940.226C1146.3 940.572 1146.42 940.918 1146.42 941.263C1146.42 941.609 1146.42 942.071 1146.3 942.532C1146.18 942.993 1146.07 943.454 1145.84 943.915C1145.61 944.376 1145.26 944.838 1144.8 945.184L1144.11 945.645C1143.87 945.76 1143.53 945.875 1143.3 945.991C1143.07 945.991 1142.72 946.106 1142.37 946.106C1142.14 946.106 1141.79 945.991 1141.56 945.991C1140.99 945.875 1140.52 945.529 1140.06 945.184C1139.6 944.838 1139.37 944.376 1139.14 944.031C1138.91 943.569 1138.68 943.224 1138.56 942.878C1138.44 942.532 1138.33 942.186 1138.33 941.84C1138.33 941.494 1138.33 941.263 1138.33 941.033C1138.33 940.572 1138.33 940.341 1138.33 940.341Z" fill="#1F2733"/>
<path d="M1119.24 960.103C1119.24 960.103 1119.12 960.103 1119.24 960.219C1119.35 960.334 1119.58 960.449 1119.82 960.565C1120.28 960.911 1121.09 961.256 1122.01 961.718C1122.93 962.179 1124.09 962.64 1125.24 962.986C1125.82 963.216 1126.52 963.332 1127.09 963.447C1127.67 963.562 1128.36 963.678 1129.06 963.793C1130.33 963.908 1131.6 964.024 1132.87 963.908C1134.14 963.793 1135.18 963.562 1136.22 963.216C1137.14 962.871 1137.95 962.64 1138.53 962.409C1139.11 962.179 1139.46 962.064 1139.46 962.064C1139.46 962.064 1139.22 962.409 1138.76 962.755C1138.3 963.216 1137.61 963.793 1136.68 964.369C1135.76 964.946 1134.49 965.522 1133.1 965.753C1131.71 966.099 1130.21 966.099 1128.71 965.984C1128.02 965.868 1127.21 965.753 1126.52 965.522C1125.82 965.292 1125.13 965.061 1124.55 964.715C1123.28 964.139 1122.24 963.447 1121.43 962.755C1120.62 962.064 1119.93 961.372 1119.58 960.795C1119.35 960.565 1119.24 960.334 1119.24 960.103C1119.12 960.103 1119.12 960.219 1119.24 960.103Z" fill="#DD9078"/>
<path d="M1137.29 987.613C1137.29 987.613 1166.86 984.5 1170.68 1007.1C1174.49 1029.81 1174.14 1035.92 1174.14 1035.92L1145.26 1031.66L1137.29 987.613Z" fill="#6633CC"/>
<path d="M1162.24 1005.83C1160.51 991.417 1145.84 988.304 1137.29 987.612C1133.48 992.916 1128.16 996.721 1120.88 996.952C1112.56 997.182 1104.94 994.3 1100.9 987.958C1087.96 989.457 1075.13 993.147 1072.24 1001.91C1066.12 1020.36 1071.44 1121.82 1071.44 1121.82C1071.44 1121.82 1123.19 1130.7 1165.71 1122.63C1165.59 1122.74 1164.55 1025.08 1162.24 1005.83Z" fill="#6633CC"/>
<path opacity="0.2" d="M1069.24 1051.26C1069.47 1084.69 1071.44 1121.94 1071.44 1121.94C1071.44 1121.94 1123.19 1130.81 1165.71 1122.74C1165.71 1122.74 1164.9 1048.61 1163.17 1016.78C1131.86 1028.43 1100.55 1039.96 1069.24 1051.26Z" fill="#352C38"/>
<path d="M1101.13 1078.01C1101.13 1078.01 1099.97 1074.66 1105.29 1072.47C1110.6 1070.28 1165.36 1055.99 1168.83 1056.45C1172.29 1056.91 1214.69 1061.98 1215.39 1064.29C1216.08 1066.59 1164.67 1083.2 1164.67 1083.2L1101.13 1078.01Z" fill="#E1EDFF"/>
<path d="M1167.56 1087.58C1167.56 1087.58 1107.6 1087.35 1102.98 1081.93C1098.36 1076.51 1098.24 1072.59 1124.47 1077.2C1150.69 1081.81 1165.82 1081.12 1165.82 1081.12C1165.82 1081.12 1213.89 1058.75 1215.5 1064.17C1217 1069.71 1222.09 1068.32 1167.56 1087.58Z" fill="#C0D5FF"/>
<path d="M1215.39 1064.29C1213.89 1058.87 1165.71 1081.24 1165.71 1081.24C1165.71 1081.24 1165.59 1081.24 1165.25 1081.24C1166.29 1083.31 1167.1 1085.27 1168.02 1087.46C1222.09 1068.32 1217 1069.71 1215.39 1064.29Z" fill="#B1C5E8"/>
<path d="M1099.39 1065.67C1099.39 1065.67 1098.24 1062.33 1103.55 1060.14C1108.87 1057.95 1163.63 1043.65 1167.09 1044.11C1170.56 1044.57 1212.96 1049.64 1213.65 1051.95C1214.35 1054.26 1162.94 1070.86 1162.94 1070.86L1099.39 1065.67Z" fill="#E1EDFF"/>
<path d="M1165.82 1075.36C1165.82 1075.36 1105.86 1075.13 1101.24 1069.71C1096.62 1064.29 1096.51 1060.37 1122.73 1064.98C1148.96 1069.59 1164.09 1068.9 1164.09 1068.9C1164.09 1068.9 1212.15 1046.53 1213.77 1051.95C1215.16 1057.37 1220.35 1055.99 1165.82 1075.36Z" fill="#C0D5FF"/>
<path d="M1213.65 1052.07C1212.15 1046.65 1163.98 1069.01 1163.98 1069.01C1163.98 1069.01 1163.86 1069.01 1163.51 1069.01C1164.55 1071.09 1165.36 1073.05 1166.29 1075.24C1220.24 1055.99 1215.16 1057.37 1213.65 1052.07Z" fill="#B1C5E8"/>
<path d="M1099.16 1055.64C1099.16 1055.64 1098.12 1052.76 1103.21 1050.8C1108.29 1048.84 1161.32 1036.27 1164.67 1036.73C1168.02 1037.19 1209.03 1041.69 1209.73 1043.65C1210.42 1045.61 1160.63 1060.37 1160.63 1060.37L1099.16 1055.64Z" fill="#E1EDFF"/>
<path d="M1163.4 1064.17C1163.4 1064.17 1105.4 1063.94 1100.9 1059.21C1096.39 1054.49 1096.39 1051.03 1121.69 1055.06C1146.99 1059.1 1161.67 1058.52 1161.67 1058.52C1161.67 1058.52 1208.22 1038.81 1209.73 1043.65C1211.23 1048.38 1216.2 1047.11 1163.4 1064.17Z" fill="#C0D5FF"/>
<path d="M1209.73 1043.65C1208.22 1038.92 1161.67 1058.52 1161.67 1058.52C1161.67 1058.52 1161.55 1058.52 1161.2 1058.52C1162.13 1060.25 1163.05 1062.1 1163.86 1063.94C1216.2 1047.11 1211.23 1048.38 1209.73 1043.65Z" fill="#B1C5E8"/>
<path d="M1100.78 1042.15C1100.78 1042.15 1099.86 1039.27 1105.06 1037.42C1110.25 1035.69 1163.63 1025.09 1166.98 1025.66C1170.33 1026.12 1211.11 1032.23 1211.69 1034.19C1212.27 1036.15 1162.01 1048.95 1162.01 1048.95L1100.78 1042.15Z" fill="white"/>
<path d="M1164.67 1053.1C1164.67 1053.1 1106.67 1050.68 1102.4 1045.84C1098.12 1040.88 1098.12 1037.54 1123.31 1042.49C1148.5 1047.45 1163.17 1047.45 1163.17 1047.45C1163.17 1047.45 1210.42 1029.58 1211.69 1034.31C1213.08 1039.04 1218.04 1038 1164.67 1053.1Z" fill="#C0D5FF"/>
<path d="M1211.69 1034.31C1210.42 1029.47 1163.17 1047.45 1163.17 1047.45C1163.17 1047.45 1163.05 1047.45 1162.71 1047.45C1163.63 1049.3 1164.44 1051.14 1165.13 1052.99C1217.93 1038 1212.96 1039.04 1211.69 1034.31Z" fill="#B1C5E8"/>
<path d="M1070.63 1044.34L1099.16 1037.42C1099.16 1037.42 1105.29 1078.93 1106.9 1081.24C1108.52 1083.54 1156.24 1085.85 1156.24 1085.85L1170.1 1086.65C1170.1 1086.65 1111.53 1111.21 1094.66 1101.3C1077.56 1091.15 1070.63 1044.34 1070.63 1044.34Z" fill="#FFB39F"/>
<path d="M1073.4 1049.3C1082.18 1046.65 1090.73 1043.42 1099.74 1041.46C1099.4 1038.92 1099.16 1037.42 1099.16 1037.42L1070.63 1044.34C1070.63 1044.34 1070.98 1046.42 1071.55 1049.87C1072.25 1049.64 1072.82 1049.41 1073.4 1049.3Z" fill="#E09B8D"/>
<path d="M1164.79 1090.46C1164.79 1090.46 1186.5 1084.69 1186.5 1080.31C1186.5 1075.93 1178.65 1060.14 1184.19 1081.24C1184.19 1081.24 1172.64 1052.64 1181.88 1082.62C1181.88 1082.62 1172.87 1059.33 1179 1083.2C1179 1083.2 1169.75 1067.05 1176.45 1084.35L1168.14 1087.46L1148.15 1087.23L1137.52 1097.61L1164.79 1090.46Z" fill="#FFB39F"/>
<path d="M1215.62 1069.36C1215.62 1069.36 1204.07 1040.77 1213.31 1070.74C1213.31 1070.74 1204.3 1047.45 1210.42 1071.32C1210.42 1071.32 1201.18 1055.18 1207.07 1072.59L1200.71 1075.59C1203.03 1075.82 1206.03 1075.7 1208.46 1074.89C1215.85 1073.4 1217.93 1070.86 1217.93 1068.55C1217.93 1064.17 1210.07 1048.38 1215.62 1069.36Z" fill="#FFB39F"/>
<path d="M1245.08 1372.83C1245.08 1376.98 1241.73 1380.44 1237.57 1380.55C1233.41 1380.55 1229.94 1377.21 1229.83 1373.06L1229.48 1348.61C1229.48 1344.46 1232.83 1341 1236.99 1340.89C1241.15 1340.89 1244.62 1344.23 1244.73 1348.38L1245.08 1372.83Z" fill="#091E1D"/>
<path d="M1138.68 1374.09C1138.68 1378.25 1135.32 1381.7 1131.17 1381.82C1127.01 1381.82 1123.54 1378.48 1123.43 1374.33L1123.08 1349.88C1123.08 1345.73 1126.43 1342.27 1130.59 1342.16C1134.75 1342.16 1138.21 1345.5 1138.33 1349.65L1138.68 1374.09Z" fill="#091E1D"/>
<path d="M1236.53 1355.42C1236.64 1364.87 1229.02 1372.59 1219.55 1372.71L1148.38 1373.52C1138.91 1373.63 1131.17 1366.02 1131.05 1356.57L1123.43 1194.92C1123.31 1185.47 1130.93 1177.74 1140.41 1177.63L1223.01 1176.59C1232.49 1176.47 1240.23 1184.08 1240.34 1193.54L1236.53 1355.42Z" fill="#322153"/>
<path d="M1239.88 1209.79L1240.23 1193.77C1240.11 1184.31 1232.37 1176.7 1222.9 1176.82L1140.29 1177.86C1130.82 1177.97 1123.19 1185.7 1123.31 1195.15L1124.12 1211.18L1239.88 1209.79Z" fill="#1C0C3B"/>
<path d="M1253.97 1189.73C1253.97 1192.38 1251.89 1194.46 1249.24 1194.57L1114.3 1196.19C1111.64 1196.19 1109.56 1194.11 1109.45 1191.46L1109.22 1174.4C1109.22 1171.75 1111.29 1169.67 1113.95 1169.55L1248.89 1167.94C1251.55 1167.94 1253.63 1170.02 1253.74 1172.67L1253.97 1189.73Z" fill="#322153"/>
<path d="M1182.35 1237.12L1198.06 1227.66L1194.25 1237.47L1182.35 1237.12Z" fill="white"/>
<path d="M1176.45 1222.25C1176.45 1222.25 1177.72 1222.25 1179.69 1225.24C1181.65 1228.24 1186.04 1236.31 1186.04 1236.31L1194.01 1232.74L1195.86 1229.62C1195.86 1229.62 1192.4 1222.71 1189.62 1222.25H1176.45Z" fill="white"/>
<path d="M1172.06 1224.32C1172.06 1224.32 1174.49 1221.67 1176.45 1223.05C1178.42 1224.44 1181.88 1230.2 1181.88 1230.2L1176.22 1240.12L1166.06 1234.47L1172.06 1224.32Z" fill="white"/>
<path d="M1189.51 1249.46L1190.32 1267.67L1183.5 1259.72L1189.51 1249.46Z" fill="white"/>
<path d="M1205.45 1251.3C1205.45 1251.3 1204.87 1252.45 1201.29 1252.8C1197.71 1253.15 1188.47 1253.15 1188.47 1253.15L1187.78 1261.91L1189.62 1265.02C1189.62 1265.02 1197.36 1265.37 1199.1 1263.06L1205.45 1251.3Z" fill="white"/>
<path d="M1205.57 1246.46C1205.57 1246.46 1206.84 1249.8 1204.64 1250.95C1202.56 1251.99 1195.75 1252.22 1195.75 1252.22L1189.62 1242.54L1199.44 1236.2L1205.57 1246.46Z" fill="white"/>
<path d="M1175.76 1249.23L1159.59 1240.69L1169.87 1238.85L1175.76 1249.23Z" fill="white"/>
<path d="M1166.06 1262.02C1166.06 1262.02 1165.36 1260.99 1166.86 1257.76C1168.37 1254.53 1172.99 1246.57 1172.99 1246.57L1165.82 1241.62L1162.24 1241.73C1162.24 1241.73 1158.08 1248.3 1159.12 1250.84L1166.06 1262.02Z" fill="white"/>
<path d="M1170.21 1264.56C1170.21 1264.56 1166.63 1263.87 1166.86 1261.56C1166.98 1259.14 1170.21 1253.26 1170.21 1253.26L1181.65 1252.92L1182.11 1264.56H1170.21Z" fill="white"/>
<text fill="#322153" xml:space="preserve" style="white-space: pre" font-family="Ubuntu" font-size="54" font-weight="bold" letter-spacing="0em"><tspan x="400" y="1022.06">Seu marketplace&#10;</tspan><tspan x="400" y="1086.06">de coleta de res&#xed;duos.</tspan></text>
<text fill="#6C6C80" xml:space="preserve" style="white-space: pre" font-family="Roboto" font-size="24" letter-spacing="0em"><tspan x="400" y="1149.2">Ajudamos pessoas a encontrarem pontos </tspan><tspan x="400" y="1187.2">de coleta de forma eficiente.</tspan></text>
<rect x="400" y="1238" width="348" height="72" rx="8" fill="#34CB79"/>
<path d="M400 1246C400 1241.58 403.582 1238 408 1238H472V1310H408C403.582 1310 400 1306.42 400 1302V1246Z" fill="#2FB86E"/>
<path d="M435 1281C439.418 1281 443 1277.42 443 1273C443 1268.58 439.418 1265 435 1265C430.582 1265 427 1268.58 427 1273C427 1277.42 430.582 1281 435 1281Z" stroke="white" stroke-width="2" stroke-linecap="round" stroke-linejoin="round"/>
<path d="M445 1283L440.65 1278.65" stroke="white" stroke-width="2" stroke-linecap="round" stroke-linejoin="round"/>
<text fill="white" xml:space="preserve" style="white-space: pre" font-family="Roboto" font-size="16" font-weight="bold" letter-spacing="0em"><tspan x="512.594" y="1279.97">Pesquisar pontos de coleta</tspan></text>
<text fill="#322153" xml:space="preserve" style="white-space: pre" font-family="Roboto" font-size="16" font-weight="bold" letter-spacing="0em"><tspan x="1313.42" y="795.969">Cadastre um ponto de coleta</tspan></text>
<path d="M1288 781H1292C1292.53 781 1293.04 781.211 1293.41 781.586C1293.79 781.961 1294 782.47 1294 783V797C1294 797.53 1293.79 798.039 1293.41 798.414C1293.04 798.789 1292.53 799 1292 799H1288" stroke="#34CB79" stroke-width="2" stroke-linecap="round" stroke-linejoin="round"/>
<path d="M1283 795L1288 790L1283 785" stroke="#34CB79" stroke-width="2" stroke-linecap="round" stroke-linejoin="round"/>
<path d="M1288 790H1276" stroke="#34CB79" stroke-width="2" stroke-linecap="round" stroke-linejoin="round"/>
<path d="M472 801.832V779.656H486.976V783.848H476.992V788.2H485.856V792.296H476.992V797.64H487.712V801.832H472Z" fill="#322153"/>
<path d="M489.911 793.416C489.911 792.2 490.103 791.059 490.487 789.992C490.893 788.904 491.469 787.965 492.215 787.176C492.962 786.365 493.869 785.725 494.935 785.256C496.002 784.787 497.218 784.552 498.583 784.552C499.479 784.552 500.301 784.637 501.047 784.808C501.794 784.957 502.519 785.181 503.223 785.48L502.231 789.288C501.783 789.117 501.293 788.968 500.759 788.84C500.226 788.712 499.629 788.648 498.967 788.648C497.559 788.648 496.503 789.085 495.799 789.96C495.117 790.835 494.775 791.987 494.775 793.416C494.775 794.931 495.095 796.104 495.735 796.936C496.397 797.768 497.538 798.184 499.159 798.184C499.735 798.184 500.354 798.131 501.015 798.024C501.677 797.917 502.285 797.747 502.839 797.512L503.511 801.416C502.957 801.651 502.263 801.853 501.431 802.024C500.599 802.195 499.682 802.28 498.679 802.28C497.143 802.28 495.821 802.056 494.711 801.608C493.602 801.139 492.685 800.509 491.959 799.72C491.255 798.931 490.733 798.003 490.391 796.936C490.071 795.848 489.911 794.675 489.911 793.416Z" fill="#322153"/>
<path d="M521.643 793.384C521.643 794.707 521.451 795.923 521.067 797.032C520.683 798.12 520.128 799.059 519.403 799.848C518.677 800.616 517.803 801.213 516.779 801.64C515.776 802.067 514.645 802.28 513.387 802.28C512.149 802.28 511.019 802.067 509.995 801.64C508.992 801.213 508.128 800.616 507.403 799.848C506.677 799.059 506.112 798.12 505.707 797.032C505.301 795.923 505.099 794.707 505.099 793.384C505.099 792.061 505.301 790.856 505.707 789.768C506.133 788.68 506.709 787.752 507.435 786.984C508.181 786.216 509.056 785.619 510.059 785.192C511.083 784.765 512.192 784.552 513.387 784.552C514.603 784.552 515.712 784.765 516.715 785.192C517.739 785.619 518.613 786.216 519.339 786.984C520.064 787.752 520.629 788.68 521.035 789.768C521.44 790.856 521.643 792.061 521.643 793.384ZM516.779 793.384C516.779 791.912 516.48 790.76 515.883 789.928C515.307 789.075 514.475 788.648 513.387 788.648C512.299 788.648 511.456 789.075 510.859 789.928C510.261 790.76 509.963 791.912 509.963 793.384C509.963 794.856 510.261 796.029 510.859 796.904C511.456 797.757 512.299 798.184 513.387 798.184C514.475 798.184 515.307 797.757 515.883 796.904C516.48 796.029 516.779 794.856 516.779 793.384Z" fill="#322153"/>
<path d="M532.056 802.152C530.67 802.131 529.539 801.981 528.664 801.704C527.811 801.427 527.128 801.043 526.616 800.552C526.126 800.04 525.784 799.432 525.592 798.728C525.422 798.003 525.336 797.192 525.336 796.296V777.768L530.104 777V795.336C530.104 795.763 530.136 796.147 530.2 796.488C530.264 796.829 530.382 797.117 530.552 797.352C530.744 797.587 531.011 797.779 531.352 797.928C531.694 798.077 532.152 798.173 532.728 798.216L532.056 802.152Z" fill="#322153"/>
<path d="M534.661 793.544C534.661 792.051 534.885 790.749 535.333 789.64C535.803 788.509 536.411 787.571 537.157 786.824C537.904 786.077 538.757 785.512 539.717 785.128C540.699 784.744 541.701 784.552 542.725 784.552C545.115 784.552 547.003 785.288 548.389 786.76C549.776 788.211 550.469 790.355 550.469 793.192C550.469 793.469 550.459 793.779 550.437 794.12C550.416 794.44 550.395 794.728 550.373 794.984H539.557C539.664 795.965 540.123 796.744 540.933 797.32C541.744 797.896 542.832 798.184 544.197 798.184C545.072 798.184 545.925 798.109 546.757 797.96C547.611 797.789 548.304 797.587 548.837 797.352L549.477 801.224C549.221 801.352 548.88 801.48 548.453 801.608C548.027 801.736 547.547 801.843 547.013 801.928C546.501 802.035 545.947 802.12 545.349 802.184C544.752 802.248 544.155 802.28 543.557 802.28C542.043 802.28 540.72 802.056 539.589 801.608C538.48 801.16 537.552 800.552 536.805 799.784C536.08 798.995 535.536 798.067 535.173 797C534.832 795.933 534.661 794.781 534.661 793.544ZM545.861 791.72C545.84 791.315 545.765 790.92 545.637 790.536C545.531 790.152 545.349 789.811 545.093 789.512C544.859 789.213 544.549 788.968 544.165 788.776C543.803 788.584 543.344 788.488 542.789 788.488C542.256 788.488 541.797 788.584 541.413 788.776C541.029 788.947 540.709 789.181 540.453 789.48C540.197 789.779 539.995 790.131 539.845 790.536C539.717 790.92 539.621 791.315 539.557 791.72H545.861Z" fill="#322153"/>
<path d="M553.989 780.808L558.757 780.04V785H564.485V788.968H558.757V794.888C558.757 795.891 558.927 796.691 559.269 797.288C559.631 797.885 560.346 798.184 561.413 798.184C561.925 798.184 562.447 798.141 562.981 798.056C563.535 797.949 564.037 797.811 564.485 797.64L565.157 801.352C564.581 801.587 563.941 801.789 563.237 801.96C562.533 802.131 561.669 802.216 560.645 802.216C559.343 802.216 558.266 802.045 557.413 801.704C556.559 801.341 555.877 800.851 555.365 800.232C554.853 799.592 554.49 798.824 554.277 797.928C554.085 797.032 553.989 796.04 553.989 794.952V780.808Z" fill="#322153"/>
<path d="M574.174 798.504C574.644 798.504 575.092 798.493 575.519 798.472C575.945 798.451 576.286 798.419 576.543 798.376V794.76C576.351 794.717 576.062 794.675 575.678 794.632C575.294 794.589 574.942 794.568 574.622 794.568C574.174 794.568 573.748 794.6 573.342 794.664C572.958 794.707 572.617 794.803 572.318 794.952C572.02 795.101 571.785 795.304 571.615 795.56C571.444 795.816 571.358 796.136 571.358 796.52C571.358 797.267 571.604 797.789 572.094 798.088C572.606 798.365 573.3 798.504 574.174 798.504ZM573.79 784.552C575.198 784.552 576.372 784.712 577.311 785.032C578.249 785.352 578.996 785.811 579.55 786.408C580.126 787.005 580.532 787.731 580.767 788.584C581.001 789.437 581.118 790.387 581.118 791.432V801.352C580.436 801.501 579.487 801.672 578.271 801.864C577.054 802.077 575.582 802.184 573.854 802.184C572.767 802.184 571.775 802.088 570.879 801.896C570.004 801.704 569.246 801.395 568.606 800.968C567.966 800.52 567.476 799.944 567.134 799.24C566.793 798.536 566.622 797.672 566.622 796.648C566.622 795.667 566.814 794.835 567.199 794.152C567.604 793.469 568.137 792.925 568.799 792.52C569.46 792.115 570.217 791.827 571.071 791.656C571.924 791.464 572.809 791.368 573.727 791.368C574.345 791.368 574.889 791.4 575.358 791.464C575.849 791.507 576.244 791.571 576.543 791.656V791.208C576.543 790.397 576.297 789.747 575.807 789.256C575.316 788.765 574.463 788.52 573.246 788.52C572.436 788.52 571.636 788.584 570.846 788.712C570.057 788.819 569.374 788.979 568.799 789.192L568.19 785.352C568.468 785.267 568.809 785.181 569.215 785.096C569.641 784.989 570.1 784.904 570.59 784.84C571.081 784.755 571.593 784.691 572.127 784.648C572.681 784.584 573.236 784.552 573.79 784.552Z" fill="#322153"/>
<path d="M414.642 769.85L410.067 778.586C409.772 779.15 409.966 779.855 410.504 780.173L417.668 784.392C418.214 784.714 418.908 784.516 419.218 783.95L427.974 768.001H417.64C416.389 768.001 415.238 768.71 414.642 769.85Z" fill="#29A361"/>
<path d="M427.974 768L419.218 783.95C418.907 784.515 418.214 784.714 417.668 784.392L415.798 783.291C416.254 783.367 416.729 783.15 416.97 782.71L425.047 768H427.974Z" fill="#248F55"/>
<path d="M437.555 776.459L434.399 769.949C433.821 768.755 432.641 768.001 431.351 768.001H422.228L429.233 780.317C429.21 780.327 429.187 780.338 429.164 780.349C428.723 780.554 428.741 781.209 429.192 781.389L435.241 783.796C435.521 783.908 435.836 783.763 435.943 783.472L438.275 777.18C438.447 776.714 437.995 776.265 437.555 776.459Z" fill="#34CB79"/>
<path d="M438.275 777.179L435.943 783.471C435.836 783.763 435.521 783.908 435.241 783.796L433.411 783.067L435.592 777.179C435.716 776.845 435.518 776.52 435.234 776.435C434.963 776.353 434.732 776.17 434.606 775.909L431.717 769.949C431.138 768.755 429.959 768 428.669 768H431.351C432.641 768 433.82 768.755 434.399 769.949L437.555 776.459C437.995 776.265 438.447 776.714 438.275 777.179Z" fill="#2FB86E"/>
<path d="M431.459 801.559C431.374 801.198 430.924 801.043 430.65 801.328L425.922 806.227C425.734 806.422 425.734 806.739 425.922 806.934L430.668 811.853C430.941 812.135 431.386 811.984 431.476 811.629H438.455C439.74 811.629 440.916 810.881 441.497 809.693L445.479 801.559H431.459V801.559Z" fill="#29A361"/>
<path d="M437.351 801.559L439.614 805.108C440.125 805.91 440.182 806.935 439.762 807.793L438.831 809.693C438.251 810.881 437.075 811.629 435.79 811.629H438.455C439.739 811.629 440.916 810.881 441.497 809.693L445.479 801.559H437.351V801.559Z" fill="#248F55"/>
<path d="M421.935 810.694V802.036C421.935 801.385 421.426 800.857 420.798 800.857H402.068L406.888 810.028C407.485 811.165 408.635 811.872 409.884 811.872H420.798C421.426 811.872 421.935 811.345 421.935 810.694Z" fill="#29A361"/>
<path d="M410.011 800.858L405.852 808.057L402.068 800.858H410.011Z" fill="#248F55"/>
<path d="M421.935 802.036V810.694C421.935 811.345 421.426 811.872 420.798 811.872H417.815C418.443 811.872 418.952 811.345 418.952 810.694V802.036C418.952 801.385 418.443 800.858 417.815 800.858H420.798C421.426 800.858 421.935 801.385 421.935 802.036Z" fill="#248F55"/>
<path d="M412.785 793.207L411.944 786.647C411.902 786.323 411.615 786.095 411.302 786.138L404.948 787.013C404.469 787.079 404.291 787.682 404.619 788.018L400.609 794.008C399.873 795.106 399.799 796.54 400.416 797.714L404.78 806.017L411.865 793.751C411.868 793.753 411.87 793.755 411.873 793.757C412.277 794.075 412.852 793.728 412.785 793.207Z" fill="#34CB79"/>
<path d="M411.872 793.757C411.871 793.755 411.868 793.753 411.866 793.751L404.78 806.016L403.322 803.244L409.09 793.259L409.25 792.982C409.337 792.83 409.508 792.765 409.675 792.798C409.676 792.799 409.677 792.799 409.678 792.799C410.033 792.865 410.398 792.558 410.344 792.136L409.605 786.371L411.302 786.138C411.614 786.095 411.902 786.323 411.944 786.646L412.785 793.207C412.852 793.729 412.277 794.075 411.872 793.757Z" fill="#2FB86E"/>
<path d="M447.396 793.557L441.91 785.32C441.574 784.814 440.919 784.662 440.406 784.968L433.258 789.243C432.69 789.583 432.516 790.347 432.877 790.914L442.955 806.715L447.631 797.164C448.197 796.008 448.107 794.624 447.396 793.557Z" fill="#34CB79"/>
<path d="M447.631 797.164L442.954 806.715L441.386 804.255L444.857 797.164C445.423 796.008 445.333 794.624 444.622 793.557L439.331 785.612L440.407 784.969C440.92 784.661 441.574 784.815 441.911 785.32L447.396 793.557C448.107 794.624 448.197 796.009 447.631 797.164Z" fill="#2FB86E"/>
<g filter="url(#filter0_d)">
<g clip-path="url(#clip1)">
<rect x="1225" y="316" width="375" height="812" rx="20" fill="#F0F0F5"/>
<g opacity="0.1">
<path d="M1196.74 287.984L1154.64 368.212C1151.92 373.392 1153.71 379.869 1158.67 382.781L1224.59 421.53C1229.61 424.483 1236 422.667 1238.85 417.474L1319.43 271.005H1224.33C1212.82 271.005 1202.23 277.521 1196.74 287.984Z" fill="#A0A0B2"/>
<path d="M1319.43 271L1238.86 417.47C1236 422.663 1229.61 424.483 1224.59 421.532L1207.39 411.422C1211.58 412.121 1215.95 410.127 1218.17 406.082L1292.49 271H1319.43Z" fill="#A0A0B2"/>
<path d="M1407.6 348.681L1378.56 288.897C1373.23 277.929 1362.38 271.005 1350.51 271.005H1266.55L1331.01 384.104C1330.8 384.202 1330.59 384.3 1330.38 384.399C1326.32 386.286 1326.49 392.302 1330.64 393.95L1386.3 416.056C1388.88 417.08 1391.77 415.748 1392.76 413.082L1414.22 355.296C1415.81 351.022 1411.64 346.897 1407.6 348.681Z" fill="#A0A0B2"/>
<path d="M1414.22 355.292L1392.76 413.076C1391.77 415.751 1388.88 417.084 1386.3 416.054L1369.46 409.363L1389.53 355.292C1390.68 352.225 1388.85 349.239 1386.24 348.456C1383.75 347.709 1381.62 346.022 1380.46 343.625L1353.87 288.896C1348.54 277.931 1337.69 271 1325.82 271H1350.51C1362.37 271 1373.22 277.931 1378.56 288.896L1407.59 348.684C1411.65 346.901 1415.81 351.018 1414.22 355.292Z" fill="#A0A0B2"/>
<path d="M1351.5 579.179C1350.72 575.86 1346.58 574.438 1344.05 577.051L1300.55 622.042C1298.81 623.837 1298.81 626.746 1300.55 628.54L1344.22 673.704C1346.73 676.299 1350.83 674.914 1351.65 671.651H1415.88C1427.7 671.651 1438.52 664.78 1443.87 653.876L1480.52 579.178L1351.5 579.179Z" fill="#A0A0B2"/>
<path d="M1405.72 579.18L1426.54 611.766C1431.25 619.133 1431.77 628.547 1427.91 636.422L1419.34 653.877C1414 664.777 1403.18 671.653 1391.36 671.653H1415.88C1427.7 671.653 1438.52 664.777 1443.87 653.877L1480.52 579.181L1405.72 579.18Z" fill="#A0A0B2"/>
<path d="M1263.86 663.063V583.552C1263.86 577.576 1259.17 572.731 1253.39 572.731H1081.03L1125.38 656.948C1130.88 667.387 1141.46 673.883 1152.95 673.883H1253.39C1259.17 673.884 1263.86 669.039 1263.86 663.063Z" fill="#A0A0B2"/>
<path d="M1154.13 572.738L1115.85 638.85L1081.03 572.738H1154.13Z" fill="#A0A0B2"/>
<path d="M1263.85 583.553V663.066C1263.85 669.04 1259.17 673.883 1253.39 673.883L1225.94 673.884C1231.71 673.884 1236.4 669.04 1236.4 663.066V583.553C1236.4 577.579 1231.71 572.735 1225.94 572.735H1253.39C1259.17 572.734 1263.85 577.579 1263.85 583.553Z" fill="#A0A0B2"/>
<path d="M1179.65 502.474L1171.91 442.234C1171.53 439.258 1168.88 437.167 1166.01 437.562L1107.53 445.597C1103.13 446.202 1101.49 451.741 1104.5 454.823L1067.6 509.831C1060.83 519.916 1060.15 533.085 1065.82 543.865L1105.98 620.111L1171.19 507.47C1171.21 507.488 1171.24 507.507 1171.26 507.525C1174.98 510.446 1180.27 507.264 1179.65 502.474Z" fill="#A0A0B2"/>
<path d="M1171.26 507.525C1171.24 507.507 1171.21 507.489 1171.19 507.47L1105.99 620.108L1092.57 594.648L1147.12 500.408C1147.93 499.018 1149.5 498.418 1151.04 498.727C1151.05 498.728 1151.05 498.729 1151.06 498.731C1154.33 499.334 1157.69 496.515 1157.19 492.645L1150.39 439.705L1166 437.563C1168.88 437.168 1171.53 439.264 1171.91 442.232L1179.65 502.48C1180.27 507.268 1174.98 510.447 1171.26 507.525Z" fill="#A0A0B2"/>
<path d="M1498.16 505.692L1447.68 430.048C1444.58 425.408 1438.56 424.005 1433.84 426.822L1368.05 466.081C1362.83 469.197 1361.23 476.219 1364.55 481.421L1457.29 626.525L1500.32 538.819C1505.53 528.203 1504.7 515.49 1498.16 505.692Z" fill="#A0A0B2"/>
<path d="M1500.32 538.821L1457.29 626.523L1442.85 603.931L1474.79 538.82C1480 528.204 1479.18 515.493 1472.63 505.695L1423.94 432.736L1433.84 426.826C1438.56 424.004 1444.59 425.41 1447.68 430.052L1498.16 505.696C1504.7 515.494 1505.53 528.206 1500.32 538.821Z" fill="#A0A0B2"/>
</g>
<path d="M1317.47 477.605V461.477H1328.39V464.526H1321.11V467.691H1327.57V470.67H1321.11V474.556H1328.92V477.605H1317.47Z" fill="#322153"/>
<path d="M1330.53 471.484C1330.53 470.6 1330.67 469.77 1330.95 468.994C1331.24 468.203 1331.66 467.52 1332.21 466.946C1332.75 466.357 1333.41 465.891 1334.19 465.55C1334.97 465.208 1335.85 465.038 1336.85 465.038C1337.5 465.038 1338.1 465.1 1338.64 465.224C1339.19 465.333 1339.72 465.496 1340.23 465.713L1339.51 468.482C1339.18 468.358 1338.82 468.249 1338.43 468.156C1338.05 468.063 1337.61 468.017 1337.13 468.017C1336.1 468.017 1335.33 468.335 1334.82 468.971C1334.32 469.607 1334.07 470.445 1334.07 471.484C1334.07 472.586 1334.31 473.439 1334.77 474.044C1335.25 474.649 1336.09 474.952 1337.27 474.952C1337.69 474.952 1338.14 474.913 1338.62 474.836C1339.1 474.758 1339.55 474.634 1339.95 474.463L1340.44 477.303C1340.04 477.473 1339.53 477.621 1338.92 477.745C1338.32 477.869 1337.65 477.931 1336.92 477.931C1335.8 477.931 1334.83 477.768 1334.03 477.442C1333.22 477.101 1332.55 476.643 1332.02 476.069C1331.51 475.495 1331.13 474.82 1330.88 474.044C1330.64 473.253 1330.53 472.4 1330.53 471.484Z" fill="#322153"/>
<path d="M1353.65 471.461C1353.65 472.423 1353.51 473.307 1353.23 474.114C1352.95 474.905 1352.55 475.588 1352.02 476.162C1351.49 476.721 1350.86 477.155 1350.11 477.465C1349.38 477.776 1348.55 477.931 1347.64 477.931C1346.73 477.931 1345.91 477.776 1345.16 477.465C1344.43 477.155 1343.8 476.721 1343.28 476.162C1342.75 475.588 1342.33 474.905 1342.04 474.114C1341.74 473.307 1341.6 472.423 1341.6 471.461C1341.6 470.499 1341.74 469.623 1342.04 468.831C1342.35 468.04 1342.77 467.365 1343.3 466.807C1343.84 466.248 1344.48 465.814 1345.21 465.503C1345.96 465.193 1346.77 465.038 1347.64 465.038C1348.52 465.038 1349.33 465.193 1350.06 465.503C1350.81 465.814 1351.45 466.248 1351.97 466.807C1352.5 467.365 1352.92 468.04 1353.21 468.831C1353.51 469.623 1353.65 470.499 1353.65 471.461ZM1350.11 471.461C1350.11 470.391 1349.89 469.553 1349.46 468.948C1349.04 468.327 1348.43 468.017 1347.64 468.017C1346.84 468.017 1346.23 468.327 1345.79 468.948C1345.36 469.553 1345.14 470.391 1345.14 471.461C1345.14 472.532 1345.36 473.385 1345.79 474.021C1346.23 474.642 1346.84 474.952 1347.64 474.952C1348.43 474.952 1349.04 474.642 1349.46 474.021C1349.89 473.385 1350.11 472.532 1350.11 471.461Z" fill="#322153"/>
<path d="M1361.24 477.838C1360.23 477.822 1359.41 477.714 1358.77 477.512C1358.15 477.31 1357.65 477.031 1357.28 476.674C1356.92 476.302 1356.67 475.86 1356.53 475.348C1356.41 474.82 1356.35 474.231 1356.35 473.579V460.104L1359.82 459.545V472.881C1359.82 473.191 1359.84 473.47 1359.89 473.719C1359.94 473.967 1360.02 474.176 1360.15 474.347C1360.29 474.518 1360.48 474.657 1360.73 474.766C1360.98 474.874 1361.31 474.944 1361.73 474.975L1361.24 477.838Z" fill="#322153"/>
<path d="M1363.14 471.577C1363.14 470.491 1363.3 469.545 1363.63 468.738C1363.97 467.916 1364.42 467.233 1364.96 466.69C1365.5 466.147 1366.13 465.736 1366.83 465.457C1367.54 465.177 1368.27 465.038 1369.02 465.038C1370.76 465.038 1372.14 465.573 1373.15 466.644C1374.16 467.699 1374.66 469.258 1374.66 471.321C1374.66 471.523 1374.65 471.748 1374.64 471.996C1374.62 472.229 1374.61 472.439 1374.59 472.625H1366.71C1366.79 473.338 1367.12 473.905 1367.71 474.324C1368.3 474.743 1369.1 474.952 1370.09 474.952C1370.73 474.952 1371.35 474.898 1371.96 474.789C1372.58 474.665 1373.08 474.518 1373.47 474.347L1373.94 477.163C1373.75 477.256 1373.5 477.349 1373.19 477.442C1372.88 477.535 1372.53 477.613 1372.14 477.675C1371.77 477.752 1371.37 477.815 1370.93 477.861C1370.5 477.908 1370.06 477.931 1369.63 477.931C1368.52 477.931 1367.56 477.768 1366.73 477.442C1365.92 477.116 1365.25 476.674 1364.7 476.116C1364.18 475.542 1363.78 474.867 1363.51 474.091C1363.27 473.315 1363.14 472.477 1363.14 471.577ZM1371.3 470.251C1371.29 469.956 1371.23 469.669 1371.14 469.39C1371.06 469.111 1370.93 468.862 1370.74 468.645C1370.57 468.428 1370.35 468.249 1370.07 468.11C1369.8 467.97 1369.47 467.9 1369.07 467.9C1368.68 467.9 1368.34 467.97 1368.06 468.11C1367.78 468.234 1367.55 468.405 1367.36 468.622C1367.18 468.839 1367.03 469.095 1366.92 469.39C1366.83 469.669 1366.76 469.956 1366.71 470.251H1371.3Z" fill="#322153"/>
<path d="M1377.23 462.315L1380.7 461.756V465.364H1384.88V468.249H1380.7V472.555C1380.7 473.284 1380.83 473.866 1381.08 474.3C1381.34 474.735 1381.86 474.952 1382.64 474.952C1383.01 474.952 1383.39 474.921 1383.78 474.859C1384.19 474.781 1384.55 474.68 1384.88 474.556L1385.37 477.256C1384.95 477.427 1384.48 477.574 1383.97 477.698C1383.45 477.822 1382.82 477.884 1382.08 477.884C1381.13 477.884 1380.35 477.76 1379.72 477.512C1379.1 477.248 1378.6 476.891 1378.23 476.441C1377.86 475.976 1377.59 475.417 1377.44 474.766C1377.3 474.114 1377.23 473.393 1377.23 472.601V462.315Z" fill="#322153"/>
<path d="M1391.94 475.185C1392.28 475.185 1392.61 475.177 1392.92 475.161C1393.23 475.146 1393.48 475.123 1393.66 475.092V472.462C1393.53 472.431 1393.32 472.4 1393.04 472.369C1392.76 472.338 1392.5 472.322 1392.27 472.322C1391.94 472.322 1391.63 472.345 1391.33 472.392C1391.05 472.423 1390.8 472.493 1390.59 472.601C1390.37 472.71 1390.2 472.857 1390.07 473.044C1389.95 473.23 1389.89 473.463 1389.89 473.742C1389.89 474.285 1390.07 474.665 1390.42 474.882C1390.8 475.084 1391.3 475.185 1391.94 475.185ZM1391.66 465.038C1392.69 465.038 1393.54 465.154 1394.22 465.387C1394.91 465.62 1395.45 465.953 1395.86 466.388C1396.28 466.822 1396.57 467.35 1396.74 467.97C1396.91 468.591 1397 469.281 1397 470.041V477.256C1396.5 477.365 1395.81 477.489 1394.92 477.628C1394.04 477.784 1392.97 477.861 1391.71 477.861C1390.91 477.861 1390.19 477.791 1389.54 477.652C1388.9 477.512 1388.35 477.287 1387.88 476.977C1387.41 476.651 1387.06 476.232 1386.81 475.72C1386.56 475.208 1386.44 474.58 1386.44 473.835C1386.44 473.121 1386.58 472.516 1386.85 472.02C1387.15 471.523 1387.54 471.128 1388.02 470.833C1388.5 470.538 1389.06 470.328 1389.68 470.204C1390.3 470.065 1390.94 469.995 1391.61 469.995C1392.06 469.995 1392.46 470.018 1392.8 470.065C1393.16 470.096 1393.45 470.142 1393.66 470.204V469.879C1393.66 469.289 1393.49 468.816 1393.13 468.459C1392.77 468.102 1392.15 467.924 1391.26 467.924C1390.67 467.924 1390.09 467.97 1389.51 468.063C1388.94 468.141 1388.44 468.257 1388.02 468.412L1387.58 465.62C1387.78 465.558 1388.03 465.496 1388.32 465.433C1388.64 465.356 1388.97 465.294 1389.33 465.247C1389.68 465.185 1390.06 465.139 1390.45 465.108C1390.85 465.061 1391.26 465.038 1391.66 465.038Z" fill="#322153"/>
<path d="M1275.67 454.345L1272.34 460.699C1272.12 461.109 1272.26 461.622 1272.66 461.853L1277.88 464.922C1278.27 465.155 1278.78 465.012 1279.01 464.6L1285.39 453H1277.86C1276.94 453 1276.11 453.516 1275.67 454.345Z" fill="#29A361"/>
<path d="M1285.39 453L1279.01 464.6C1278.78 465.011 1278.27 465.155 1277.88 464.922L1276.51 464.121C1276.85 464.176 1277.19 464.018 1277.37 463.698L1283.25 453H1285.39Z" fill="#248F55"/>
<path d="M1292.37 459.152L1290.07 454.417C1289.65 453.549 1288.79 453 1287.85 453H1281.2L1286.3 461.958C1286.29 461.965 1286.27 461.973 1286.25 461.981C1285.93 462.13 1285.95 462.607 1286.28 462.737L1290.68 464.488C1290.89 464.569 1291.12 464.464 1291.2 464.252L1292.9 459.676C1293.02 459.337 1292.69 459.011 1292.37 459.152Z" fill="#34CB79"/>
<path d="M1292.9 459.676L1291.2 464.252C1291.12 464.464 1290.89 464.569 1290.68 464.488L1289.35 463.958L1290.94 459.676C1291.03 459.433 1290.89 459.196 1290.68 459.134C1290.48 459.075 1290.31 458.941 1290.22 458.752L1288.12 454.417C1287.69 453.549 1286.83 453 1285.89 453H1287.85C1288.79 453 1289.65 453.549 1290.07 454.417L1292.37 459.152C1292.69 459.011 1293.02 459.337 1292.9 459.676Z" fill="#2FB86E"/>
<path d="M1287.93 477.407C1287.87 477.144 1287.54 477.031 1287.34 477.238L1283.89 480.801C1283.75 480.943 1283.75 481.174 1283.89 481.316L1287.35 484.893C1287.55 485.098 1287.87 484.989 1287.94 484.73H1293.03C1293.96 484.73 1294.82 484.186 1295.24 483.322L1298.15 477.407H1287.93V477.407Z" fill="#29A361"/>
<path d="M1292.22 477.407L1293.87 479.988C1294.24 480.571 1294.28 481.317 1293.98 481.94L1293.3 483.323C1292.88 484.186 1292.02 484.73 1291.08 484.73H1293.03C1293.96 484.73 1294.82 484.186 1295.24 483.323L1298.15 477.407H1292.22V477.407Z" fill="#248F55"/>
<path d="M1280.99 484.05V477.753C1280.99 477.28 1280.62 476.896 1280.16 476.896H1266.51L1270.02 483.566C1270.46 484.393 1271.29 484.907 1272.2 484.907H1280.16C1280.62 484.907 1280.99 484.523 1280.99 484.05Z" fill="#29A361"/>
<path d="M1272.3 476.897L1269.26 482.133L1266.51 476.897H1272.3Z" fill="#248F55"/>
<path d="M1280.99 477.753V484.05C1280.99 484.524 1280.62 484.907 1280.16 484.907H1277.98C1278.44 484.907 1278.81 484.524 1278.81 484.05V477.753C1278.81 477.28 1278.44 476.897 1277.98 476.897H1280.16C1280.62 476.896 1280.99 477.28 1280.99 477.753Z" fill="#248F55"/>
<path d="M1274.32 471.332L1273.7 466.561C1273.67 466.326 1273.46 466.16 1273.24 466.191L1268.61 466.828C1268.26 466.875 1268.13 467.314 1268.37 467.558L1265.44 471.915C1264.91 472.713 1264.85 473.756 1265.3 474.61L1268.48 480.648L1273.65 471.728C1273.65 471.729 1273.65 471.731 1273.65 471.732C1273.95 471.963 1274.37 471.711 1274.32 471.332Z" fill="#34CB79"/>
<path d="M1273.65 471.732C1273.65 471.731 1273.65 471.729 1273.65 471.728L1268.48 480.648L1267.42 478.632L1271.62 471.37L1271.74 471.168C1271.8 471.058 1271.93 471.011 1272.05 471.035C1272.05 471.035 1272.05 471.035 1272.05 471.036C1272.31 471.083 1272.58 470.86 1272.54 470.554L1272 466.361L1273.24 466.191C1273.46 466.16 1273.67 466.326 1273.7 466.561L1274.32 471.332C1274.37 471.712 1273.95 471.963 1273.65 471.732Z" fill="#2FB86E"/>
<path d="M1299.54 471.587L1295.54 465.596C1295.3 465.229 1294.82 465.117 1294.45 465.341L1289.24 468.45C1288.82 468.697 1288.7 469.253 1288.96 469.665L1296.31 481.156L1299.71 474.21C1300.13 473.37 1300.06 472.363 1299.54 471.587Z" fill="#34CB79"/>
<path d="M1299.71 474.211L1296.31 481.156L1295.16 479.367L1297.69 474.21C1298.1 473.37 1298.04 472.363 1297.52 471.587L1293.66 465.809L1294.45 465.341C1294.82 465.117 1295.3 465.229 1295.54 465.596L1299.54 471.587C1300.06 472.363 1300.13 473.37 1299.71 474.211Z" fill="#2FB86E"/>
<text fill="#322153" xml:space="preserve" style="white-space: pre" font-family="Ubuntu" font-size="30" font-weight="bold" letter-spacing="0em"><tspan x="1265" y="596.145">Seu marketplace&#10;</tspan><tspan x="1265" y="636.145">de coleta de&#10;</tspan><tspan x="1265" y="676.145">res&#xed;duos.</tspan></text>
<text fill="#6C6C80" xml:space="preserve" style="white-space: pre" font-family="Roboto" font-size="15" letter-spacing="0em"><tspan x="1265" y="718.627">Ajudamos pessoas a encontrarem </tspan><tspan x="1265" y="743.627">pontos de coleta de forma eficiente.</tspan></text>
<rect x="1265" y="1032" width="295" height="56" rx="8" fill="#34CB79"/>
<path d="M1265 1040C1265 1035.58 1268.58 1032 1273 1032H1321V1088H1273C1268.58 1088 1265 1084.42 1265 1080V1040Z" fill="#2FB86E"/>
<text fill="white" xml:space="preserve" style="white-space: pre" font-family="Roboto" font-size="15" font-weight="bold" letter-spacing="0em"><tspan x="1414" y="1065.13">Entrar</tspan></text>
<path d="M1286 1060L1300 1060" stroke="white" stroke-width="2" stroke-linecap="round" stroke-linejoin="round"/>
<path d="M1293 1053L1300 1060L1293 1067" stroke="white" stroke-width="2" stroke-linecap="round" stroke-linejoin="round"/>
<rect x="1265" y="888" width="295" height="56" rx="8" fill="white"/>
<rect x="1265" y="952" width="295" height="56" rx="8" fill="white"/>
<text fill="#A0A0B2" xml:space="preserve" style="white-space: pre" font-family="Roboto" font-size="14" letter-spacing="0em"><tspan x="1289" y="920.785">Selecione a cidade</tspan></text>
<text fill="#A0A0B2" xml:space="preserve" style="white-space: pre" font-family="Roboto" font-size="14" letter-spacing="0em"><tspan x="1289" y="984.785">Selecione o estado</tspan></text>
<path d="M1534.52 912L1529 917.201L1523.48 912L1522 913.399L1529 920L1536 913.399L1534.52 912Z" fill="#A0A0B2"/>
<path d="M1534.52 976L1529 981.201L1523.48 976L1522 977.399L1529 984L1536 977.399L1534.52 976Z" fill="#A0A0B2"/>
</g>
</g>
</g>
<defs>
<filter id="filter0_d" x="1161" y="256" width="503" height="940" filterUnits="userSpaceOnUse" color-interpolation-filters="sRGB">
<feFlood flood-opacity="0" result="BackgroundImageFix"/>
<feColorMatrix in="SourceAlpha" type="matrix" values="0 0 0 0 0 0 0 0 0 0 0 0 0 0 0 0 0 0 127 0"/>
<feOffset dy="4"/>
<feGaussianBlur stdDeviation="32"/>
<feColorMatrix type="matrix" values="0 0 0 0 0 0 0 0 0 0 0 0 0 0 0 0 0 0 0.25 0"/>
<feBlend mode="normal" in2="BackgroundImageFix" result="effect1_dropShadow"/>
<feBlend mode="normal" in="SourceGraphic" in2="effect1_dropShadow" result="shape"/>
</filter>
<linearGradient id="paint0_linear" x1="1171.5" y1="1035.5" x2="1670" y2="1534" gradientUnits="userSpaceOnUse">
<stop stop-color="white"/>
<stop offset="1" stop-color="white" stop-opacity="0"/>
</linearGradient>
<clipPath id="clip0">
<rect width="1920" height="1348" fill="white"/>
</clipPath>
<clipPath id="clip1">
<rect x="1225" y="316" width="375" height="812" rx="20" fill="white"/>
</clipPath>
</defs>
</svg>
